# xmcd
#
# Track frame offsets:
#	150
#	13890
#	32999
#	51708
#	67890
#	81326
#	98310
#	114594
#	131354
#	147591
#	164227
#	179771
#	193334
#	212252
#	229454
#	244726
#	257101
#	274576
#	288989
#
# Disc length: 4004 seconds
#
# Revision: 1
# Processed by: cddbd v1.5.2PL0 Copyright (c) Steve Scherf et al.
# Submitted via: audiograbber 1.83.01
#
DISCID=290fa213
DTITLE=Various Artist - CDX 640
DYEAR=2016
DGENRE=Country
TTITLE0=Love And Theft - Candyland
TTITLE1=George Strait - Goin' Goin' Gone
TTITLE2=JoEl Sonnier - The Healin' Song
TTITLE3=Josh Abbott Band - Amnesia
TTITLE4=Tony Jackson - Nashville Cats
TTITLE5=The Band Steele - Tan Lines
TTITLE6=Joe Schmidt - Buck On The Wall
TTITLE7=Brian Milson - Gonna Be A Song Someday
TTITLE8=Tyler Hammond - Tough Girl
TTITLE9=Charlie McCoy and Vince Hatfield - Hatfields and McCoys
TTITLE10=Bradley Walker - Call Me Old Fashioned
TTITLE11=Tim McDonald - Night Like That
TTITLE12=Justin Peters - Then l'll Be Over You
TTITLE13=Wendy Jager - RUN
TTITLE14=Michael Lusk - We're Gonna Find A Cure
TTITLE15=Aubrie Sellers - Sit Here And Cry
TTITLE16=Kacey Musgraves - Present Without A Bow
TTITLE17=Kelsea Ballerini - Yeah Boy
TTITLE18=Mark Collie - One More Second Chance
EXTD=
EXTT0=
EXTT1=
EXTT2=
EXTT3=
EXTT4=
EXTT5=
EXTT6=
EXTT7=
EXTT8=
EXTT9=
EXTT10=
EXTT11=
EXTT12=
EXTT13=
EXTT14=
EXTT15=
EXTT16=
EXTT17=
EXTT18=
PLAYORDER=
